<svg 
 xmlns="http://www.w3.org/2000/svg"
 xmlns:xlink="http://www.w3.org/1999/xlink"
 width="66px" height="75px">
<defs>
<linearGradient id="PSgrad_0" x1="0%" x2="0%" y1="100%" y2="0%">
  <stop offset="0%" stop-color="rgb(221,22,76)" stop-opacity="1" />
  <stop offset="100%" stop-color="rgb(93,10,168)" stop-opacity="1" />
</linearGradient>

</defs>
<path fill-rule="evenodd"  fill="rgb(0, 0, 0)"
 d="M63.806,21.955 L59.409,21.955 C58.195,21.955 57.211,20.972 57.211,19.759 C57.211,18.547 58.195,17.563 59.409,17.563 L63.806,17.563 C65.020,17.563 66.004,18.547 66.004,19.759 C66.004,20.972 65.020,21.955 63.806,21.955 ZM56.567,12.528 C55.708,13.386 54.316,13.385 53.458,12.528 C52.599,11.670 52.599,10.279 53.458,9.422 L57.855,5.030 C58.713,4.172 60.105,4.172 60.963,5.030 C61.822,5.888 61.822,7.278 60.963,8.135 L56.567,12.528 ZM46.219,8.779 C45.005,8.779 44.021,7.796 44.021,6.583 L44.021,2.191 C44.021,0.978 45.005,-0.006 46.219,-0.006 C47.433,-0.006 48.417,0.978 48.417,2.191 L48.417,6.583 C48.417,7.796 47.433,8.779 46.219,8.779 ZM60.994,38.882 L60.994,38.882 C58.733,41.141 55.216,41.419 52.643,39.684 L52.467,39.719 C46.165,40.978 40.263,43.508 35.066,47.143 L36.122,48.199 C38.700,50.774 38.700,54.941 36.122,57.516 L34.568,59.069 L39.231,63.727 C41.803,66.296 41.803,70.476 39.231,73.045 C36.654,75.620 32.482,75.620 29.905,73.045 L19.023,62.175 L17.469,63.727 C14.891,66.302 10.719,66.302 8.142,63.727 L1.924,57.516 C-0.654,54.941 -0.653,50.774 1.924,48.199 L13.332,36.802 C19.799,30.343 24.164,22.194 25.957,13.236 L25.992,13.063 C24.285,10.549 24.484,7.027 26.795,4.718 C29.367,2.149 33.551,2.149 36.122,4.718 L60.994,29.564 C63.565,32.133 63.565,36.313 60.994,38.882 ZM33.013,69.939 C33.870,70.795 35.265,70.795 36.122,69.939 C36.979,69.083 36.979,67.689 36.122,66.833 L25.241,55.963 L22.132,59.069 L33.013,69.939 ZM33.013,51.305 L31.561,49.854 C29.1000,51.186 29.011,52.197 28.350,52.857 L31.459,55.963 L33.013,54.410 C33.873,53.552 33.873,52.163 33.013,51.305 ZM5.033,51.305 C4.174,52.163 4.174,53.552 5.033,54.410 L11.251,60.622 C12.110,61.480 13.501,61.480 14.360,60.622 C15.451,59.532 24.177,50.815 25.241,49.752 L15.914,40.434 L5.033,51.305 ZM18.930,37.235 L28.443,46.739 C34.331,41.646 41.280,37.998 48.830,36.047 L29.633,16.869 C27.679,24.411 24.028,31.354 18.930,37.235 ZM57.885,32.670 L33.013,7.823 C32.154,6.965 30.764,6.965 29.904,7.823 C29.045,8.682 29.045,10.071 29.904,10.929 L54.776,35.775 C55.635,36.634 57.025,36.634 57.885,35.775 C58.742,34.919 58.742,33.526 57.885,32.670 ZM17.469,51.304 L14.360,54.410 C13.502,55.268 12.109,55.268 11.251,54.410 C10.393,53.552 10.393,52.162 11.251,51.304 L14.360,48.198 C15.218,47.341 16.610,47.341 17.469,48.198 C18.327,49.056 18.327,50.447 17.469,51.304 Z"/>
<path fill="url(#PSgrad_0)"
 d="M63.806,21.955 L59.409,21.955 C58.195,21.955 57.211,20.972 57.211,19.759 C57.211,18.547 58.195,17.563 59.409,17.563 L63.806,17.563 C65.020,17.563 66.004,18.547 66.004,19.759 C66.004,20.972 65.020,21.955 63.806,21.955 ZM56.567,12.528 C55.708,13.386 54.316,13.385 53.458,12.528 C52.599,11.670 52.599,10.279 53.458,9.422 L57.855,5.030 C58.713,4.172 60.105,4.172 60.963,5.030 C61.822,5.888 61.822,7.278 60.963,8.135 L56.567,12.528 ZM46.219,8.779 C45.005,8.779 44.021,7.796 44.021,6.583 L44.021,2.191 C44.021,0.978 45.005,-0.006 46.219,-0.006 C47.433,-0.006 48.417,0.978 48.417,2.191 L48.417,6.583 C48.417,7.796 47.433,8.779 46.219,8.779 ZM60.994,38.882 L60.994,38.882 C58.733,41.141 55.216,41.419 52.643,39.684 L52.467,39.719 C46.165,40.978 40.263,43.508 35.066,47.143 L36.122,48.199 C38.700,50.774 38.700,54.941 36.122,57.516 L34.568,59.069 L39.231,63.727 C41.803,66.296 41.803,70.476 39.231,73.045 C36.654,75.620 32.482,75.620 29.905,73.045 L19.023,62.175 L17.469,63.727 C14.891,66.302 10.719,66.302 8.142,63.727 L1.924,57.516 C-0.654,54.941 -0.653,50.774 1.924,48.199 L13.332,36.802 C19.799,30.343 24.164,22.194 25.957,13.236 L25.992,13.063 C24.285,10.549 24.484,7.027 26.795,4.718 C29.367,2.149 33.551,2.149 36.122,4.718 L60.994,29.564 C63.565,32.133 63.565,36.313 60.994,38.882 ZM33.013,69.939 C33.870,70.795 35.265,70.795 36.122,69.939 C36.979,69.083 36.979,67.689 36.122,66.833 L25.241,55.963 L22.132,59.069 L33.013,69.939 ZM33.013,51.305 L31.561,49.854 C29.1000,51.186 29.011,52.197 28.350,52.857 L31.459,55.963 L33.013,54.410 C33.873,53.552 33.873,52.163 33.013,51.305 ZM5.033,51.305 C4.174,52.163 4.174,53.552 5.033,54.410 L11.251,60.622 C12.110,61.480 13.501,61.480 14.360,60.622 C15.451,59.532 24.177,50.815 25.241,49.752 L15.914,40.434 L5.033,51.305 ZM18.930,37.235 L28.443,46.739 C34.331,41.646 41.280,37.998 48.830,36.047 L29.633,16.869 C27.679,24.411 24.028,31.354 18.930,37.235 ZM57.885,32.670 L33.013,7.823 C32.154,6.965 30.764,6.965 29.904,7.823 C29.045,8.682 29.045,10.071 29.904,10.929 L54.776,35.775 C55.635,36.634 57.025,36.634 57.885,35.775 C58.742,34.919 58.742,33.526 57.885,32.670 ZM17.469,51.304 L14.360,54.410 C13.502,55.268 12.109,55.268 11.251,54.410 C10.393,53.552 10.393,52.162 11.251,51.304 L14.360,48.198 C15.218,47.341 16.610,47.341 17.469,48.198 C18.327,49.056 18.327,50.447 17.469,51.304 Z"/>
</svg>