<svg 
 xmlns="http://www.w3.org/2000/svg"
 xmlns:xlink="http://www.w3.org/1999/xlink"
 width="128px" height="20px">
<path fill-rule="evenodd"  fill="rgb(244, 34, 103)"
 d="M123.099,12.878 L123.988,19.999 L117.500,16.951 L111.011,19.999 L111.901,12.878 L107.001,7.639 L114.039,6.285 L117.500,0.000 L120.960,6.285 L127.999,7.639 L123.099,12.878 ZM96.989,19.999 L90.500,16.951 L84.011,19.999 L84.901,12.878 L80.001,7.639 L87.039,6.285 L90.500,0.000 L93.960,6.285 L100.999,7.639 L96.099,12.878 L96.989,19.999 ZM70.989,19.999 L64.500,16.951 L58.011,19.999 L58.901,12.878 L54.001,7.639 L61.039,6.285 L64.500,0.000 L67.960,6.285 L74.999,7.639 L70.099,12.878 L70.989,19.999 ZM43.989,19.999 L37.500,16.951 L31.011,19.999 L31.901,12.878 L27.001,7.639 L34.039,6.285 L37.500,0.000 L40.960,6.285 L47.999,7.639 L43.099,12.878 L43.989,19.999 ZM16.989,19.999 L10.500,16.951 L4.011,19.999 L4.901,12.878 L0.001,7.639 L7.039,6.285 L10.500,0.000 L13.960,6.285 L20.999,7.639 L16.099,12.878 L16.989,19.999 Z"/>
</svg>